<svg xmlns="http://www.w3.org/2000/svg" fill="none" viewBox="0 0 128 128">
    <path d="M11 65h15.03v18h14.94V38H56v45h-7.47v9H18.47v-9H11zm29.97-36v-9H56v9zM63.88 83v-9h7.47V29h-7.47v-9h22.5v27h7.47v9h-7.47v27zm29.97-36v-9h15.03v9h7.47v36h-14.94V47zM67.34 104.705q-1.587 2.527-4.54 2.527-2.235 0-3.571-1.459-1.337-1.458-1.337-4.388v-2.6q0-2.93 1.337-4.395t3.57-1.465q2.955 0 4.541 2.552l-2.465 1.684q-.831-1.428-2.076-1.428-.903 0-1.263.671-.36.672-.36 2.32v2.844q0 1.428.36 2.148t1.263.72q1.123 0 1.844-1.538zM79.51 101.397q.001 3.162-1.324 4.498t-3.436 1.337q-2.112 0-3.442-1.337-1.33-1.335-1.33-4.498v-2.612q0-3.174 1.33-4.517t3.442-1.343 3.436 1.343 1.325 4.517zm-3.27.037V98.82q0-1.88-.355-2.484-.354-.604-1.135-.604-.78 0-1.141.604-.36.605-.36 2.484v2.613q0 1.782.36 2.386t1.141.604 1.135-.604.354-2.386M91.791 107h-3.284v-1.55q-1.073 1.782-2.588 1.782-1.77 0-2.728-1.325t-.958-4.498v-2.588q0-3.186.958-4.516t2.728-1.33q1.514 0 2.588 1.794v-6.397h3.284zm-3.284-4.138v-5.493q-.403-1.563-1.501-1.563-.72 0-1.105.77-.384.768-.384 2.697v1.672q0 1.942.384 2.71.385.77 1.105.77 1.087 0 1.501-1.563M104.51 100.506h-6.274v1.526q0 1.195.373 1.794.372.598 1.275.598 1.306 0 2.088-1.294l2.453 1.685q-1.587 2.417-4.675 2.417-2.124 0-3.455-1.343t-1.33-4.504v-2.6q0-3.163 1.33-4.51 1.33-1.35 3.455-1.35 2.112 0 3.436 1.343 1.325 1.342 1.325 4.517zm-3.246-2.1v-.512q0-1.173-.367-1.789-.366-.615-1.147-.616-.78 0-1.154.616-.372.616-.372 1.789v.512zM116.292 103.155q0 1.77-1.215 2.923t-3.68 1.154q-3.114 0-4.957-2.82l2.247-1.538q.951 1.685 2.612 1.685 1.72 0 1.721-1.429 0-.78-.964-1.245l-2.088-1.013q-2.71-1.355-2.71-3.784 0-1.94 1.215-3.052 1.215-1.11 3.314-1.11 2.723 0 4.443 2.55l-2.282 1.563q-.757-1.428-2.039-1.428-.622 0-1.007.336-.384.334-.384.921 0 .903 1.062 1.416l1.757.867q2.955 1.44 2.955 4.004"/>
    <style>
        path { fill: #111; }
        @media (prefers-color-scheme: dark) { path { fill: #eee; } }
    </style>
</svg>
