<svg xmlns="http://www.w3.org/2000/svg" fill="none" viewBox="0 0 128 128">
    <path d="M0 65.4h18.4V87h18.2V32.8H55V87h-9.1V98H9V87.1H0zm36.6-43.5V11H55v10.9zM64 87V76h9.1V21H64V10h27.4v33h9.2v11h-9.2v33zm36.6-44V32h18.3v11h9.1v44h-18.2V43zM68 113q-1.8 3-5.3 3-2.6 0-4.1-1.7-1.6-1.9-1.6-5.2V106q0-3.5 1.6-5.3Q60 99 62.7 99q3.4 0 5.3 3l-2.9 2q-.9-1.7-2.4-1.7-1 0-1.5.8t-.4 2.8v3.4q0 1.7.4 2.5t1.5.9q1.3 0 2.2-1.8zM81 109q0 3.9-1.7 5.4A6 6 0 0 1 75 116a6 6 0 0 1-4.3-1.6Q69 113 69 109.1V106q0-3.8 1.7-5.4A6 6 0 0 1 75 99a6 6 0 0 1 4.3 1.6q1.7 1.5 1.7 5.4zm-4.1.1v-3q0-2.4-.5-3-.4-.8-1.4-.8t-1.4.8-.5 3v3q0 2.2.5 2.8.5.8 1.4.8 1 0 1.4-.8.5-.7.5-2.8M95 115.7h-4.1v-1.9q-1.4 2.2-3.3 2.2a4 4 0 0 1-3.4-1.6q-1.2-1.6-1.2-5.5v-3.2q0-3.8 1.2-5.5a4 4 0 0 1 3.4-1.6q2 0 3.3 2.2V93H95zm-4.1-5V104q-.6-2-2-2-.8 0-1.3 1t-.5 3.3v2a8 8 0 0 0 .5 3.3q.5 1 1.4 1 1.3 0 1.9-2M109 108h-7.9v1.8q0 1.5.5 2.2t1.6.7q1.6 0 2.6-1.6l3 2a7 7 0 0 1-5.8 2.9 6 6 0 0 1-4.3-1.6q-1.7-1.5-1.7-5.3V106q0-3.7 1.7-5.4A6 6 0 0 1 103 99a6 6 0 0 1 4.3 1.6q1.7 1.5 1.7 5.4zm-4-2.5v-.6a4 4 0 0 0-.5-2.1q-.5-.8-1.5-.8t-1.4.8a4 4 0 0 0-.5 2.1v.6zM122 111.2q0 2-1.5 3.4T116 116a7 7 0 0 1-6-3.4l2.7-1.8q1.2 2 3.2 2 2.1 0 2.1-1.7 0-.8-1.2-1.5l-2.5-1.2Q111 107 111 104q0-2.3 1.5-3.6t4-1.3q3.3 0 5.4 3l-2.8 1.9q-.9-1.7-2.4-1.7-.8 0-1.3.4t-.4 1q0 1.2 1.3 1.8l2.1 1q3.6 1.6 3.6 4.8"/>
    <style>
        path { fill: #111; }
        @media (prefers-color-scheme: dark) { path { fill: #eee; } }
    </style>
</svg>

