<svg xmlns="http://www.w3.org/2000/svg" viewBox="-1 -1 37 37"><path d="M8.54 15.94v3.12l2.33-1.56zM16.57 13.68V9.35L9.28 14.2l3.26 2.18zM25.72 14.2l-7.29-4.85v4.33l4.03 2.7zM9.28 20.8l7.29 4.85v-4.33l-4.03-2.7zM18.43 21.32v4.33l7.29-4.85-3.26-2.18zM17.5 15.3l-3.29 2.2 3.29 2.2 3.29-2.2z"/><path d="M17.5 0C7.84 0 0 7.83 0 17.5S7.84 35 17.5 35C27.17 35 35 27.17 35 17.5S27.17 0 17.5 0zm10.82 20.8c0 .04 0 .08-.01.12 0 .01-.01.03-.01.04 0 .03-.01.05-.02.08 0 .02-.01.03-.01.04-.01.02-.01.05-.02.07-.01.02-.01.03-.02.04l-.03.06c-.01.01-.02.03-.03.04-.01.02-.03.04-.04.06-.01.01-.02.03-.03.04-.01.02-.03.03-.05.05-.01.01-.02.03-.04.04-.02.02-.03.03-.05.04-.01.01-.03.02-.04.03-.01 0-.01.01-.02.01l-9.89 6.59c-.16.1-.34.16-.52.16a.91.91 0 0 1-.52-.16l-9.89-6.59c-.01 0-.01-.01-.02-.01-.01-.01-.03-.02-.04-.03 0-.01-.02-.02-.04-.04-.01-.01-.03-.02-.04-.04l-.05-.05c-.01-.01-.02-.03-.03-.04-.01-.02-.03-.04-.04-.06-.01-.01-.02-.03-.03-.04l-.03-.06c-.01-.01-.01-.03-.02-.04a.185.185 0 0 1-.02-.07c-.01-.01-.01-.03-.01-.04-.01-.03-.01-.06-.01-.08 0-.01-.01-.03-.01-.04-.01-.04-.01-.08-.01-.12v-6.6c0-.04 0-.08.01-.12 0-.01.01-.03.01-.04 0-.03.01-.05.02-.08 0-.02.01-.03.01-.04.01-.02.01-.05.02-.07.01-.02.01-.03.02-.05l.03-.06c.01-.01.02-.03.03-.04.01-.02.03-.04.04-.06.01-.01.02-.03.03-.04l.05-.05c.01-.01.02-.03.04-.04.01-.01.03-.02.05-.04.01-.01.03-.02.04-.03.01 0 .01-.01.02-.01l9.89-6.59a.92.92 0 0 1 1.03 0l9.89 6.59c.01 0 .01.01.02.01.01.01.03.02.04.03.02.01.04.03.05.04l.04.04.05.05c.01.01.02.03.03.04.01.02.03.04.04.06.01.01.02.03.03.04l.03.06c.01.01.01.03.02.05.01.02.02.04.02.07 0 .01.01.03.01.04.01.03.01.05.02.08 0 .01.01.03.01.04.01.04.01.08.01.12v6.6z"/><path d="M26.46 19.06v-3.12l-2.33 1.56z"/></svg>
