<svg xmlns="http://www.w3.org/2000/svg" viewBox="-1 -1 37.89 37"><path d="M17.94 0C8.03 0 0 8.03 0 17.94c0 7.93 5.14 14.65 12.27 17.03.9.16 1.22-.39 1.22-.86 0-.43-.02-1.55-.02-3.05-4.99 1.08-6.04-2.41-6.04-2.41-.82-2.07-1.99-2.62-1.99-2.62-1.63-1.11.12-1.09.12-1.09 1.8.13 2.75 1.85 2.75 1.85 1.6 2.74 4.2 1.95 5.22 1.49.16-1.16.63-1.95 1.14-2.4-3.98-.45-8.17-1.99-8.17-8.87 0-1.96.7-3.56 1.85-4.81-.18-.45-.8-2.28.18-4.75 0 0 1.51-.48 4.93 1.84 1.43-.4 2.97-.6 4.49-.6 1.52.01 3.06.21 4.49.6 3.43-2.32 4.93-1.84 4.93-1.84.98 2.47.36 4.29.18 4.75 1.15 1.25 1.84 2.86 1.84 4.81 0 6.89-4.2 8.41-8.19 8.85.64.55 1.22 1.65 1.22 3.32 0 2.4-.02 4.33-.02 4.92 0 .48.32 1.04 1.23.86 7.12-2.38 12.26-9.1 12.26-17.02C35.89 8.03 27.85 0 17.94 0z" fill-rule="evenodd" clip-rule="evenodd" fill="currentColor"/></svg>
