<svg xmlns="http://www.w3.org/2000/svg" viewBox="0 0 95 95"><path d="M9.62 14.84c0-3.02 2.51-5.46 5.6-5.46h64.57c3.09 0 5.6 2.45 5.6 5.46v65.32c0 3.02-2.51 5.46-5.6 5.46H15.22c-3.09 0-5.6-2.45-5.6-5.46V14.84zM32.58 73.2V38.77H21.14V73.2h11.44zm-5.72-39.13c3.99 0 6.47-2.64 6.47-5.95-.07-3.38-2.48-5.95-6.4-5.95-3.91 0-6.47 2.57-6.47 5.95 0 3.3 2.48 5.95 6.32 5.95h.08zM38.92 73.2h11.44V53.98c0-1.03.07-2.06.38-2.79.83-2.06 2.71-4.19 5.87-4.19 4.14 0 5.8 3.16 5.8 7.79V73.2h11.44V53.46c0-10.58-5.65-15.5-13.18-15.5-6.17 0-8.88 3.45-10.39 5.8h.08v-4.99H38.92c.15 3.23 0 34.43 0 34.43z" fill="#069"/><path fill="none" d="M0 0h95v95H0z"/></svg>
