<svg xmlns="http://www.w3.org/2000/svg" viewBox="0 0 284.98 284.98"><path fill="none" d="M0 0h284.98v284.98H0z"/><path d="M96.11 244.08c94.34 0 145.94-78.16 145.94-145.94 0-2.22-.05-4.43-.15-6.63a104.404 104.404 0 0 0 25.59-26.56c-9.19 4.08-19.08 6.83-29.46 8.07 10.59-6.35 18.72-16.4 22.55-28.37a102.668 102.668 0 0 1-32.57 12.45c-9.36-9.97-22.69-16.21-37.44-16.21-28.33 0-51.3 22.97-51.3 51.29 0 4.03.45 7.94 1.33 11.69-42.63-2.14-80.43-22.55-105.72-53.59a51.123 51.123 0 0 0-6.95 25.78c0 17.8 9.06 33.5 22.82 42.69a50.874 50.874 0 0 1-23.23-6.42c-.01.21-.01.43-.01.65 0 24.84 17.68 45.58 41.15 50.28-4.31 1.17-8.84 1.8-13.52 1.8-3.3 0-6.52-.33-9.64-.93 6.53 20.38 25.46 35.21 47.92 35.62-17.56 13.76-39.67 21.96-63.7 21.96-4.14 0-8.22-.24-12.24-.71 22.71 14.59 49.66 23.08 78.63 23.08" fill="#1da1f2"/></svg>
